<svg xmlns="http://www.w3.org/2000/svg" width="220" height="220"><path d="M18 0C8.028 0 0 8.028 0 18v184c0 9.972 8.028 18 18 18h184c9.972 0 18-8.028 18-18V18c0-9.972-8.028-18-18-18H18z"/><path d="M214.75 5.25L5.25 214.75C8.504 218.004 13.014 220 18 220h184c9.972 0 18-8.028 18-18V18c0-4.986-1.996-9.496-5.25-12.75z" fill="indigo"/><path d="M86.066 73.507s.064 8.38.064 12.57c-.017 1.076.956 2.068 2.031 2.072h17.845v57.038h-18.92c-1.062.004-2.027.969-2.031 2.031v10.396c.004 1.063.969 2.027 2.031 2.031h53.055c1.062-.004 2.027-.968 2.031-2.03v-10.397c-.004-1.062-.969-2.027-2.031-2.031h-17.127V75.522c-.005-1.075-.996-2.048-2.072-2.031-11.625.049-34.876.016-34.876.016zm28.623-35.505c-6.323 0-11.193 5.265-11.193 11.351 0 6.088 4.917 11.193 11.193 11.193s11.352-5.056 11.352-11.193c0-6.135-5.03-11.351-11.352-11.351z" style="text-indent:0;text-align:start;line-height:normal;text-transform:none;block-progression:tb;marker:none;-inkscape-font-specification:Sans" overflow="visible" font-weight="400" color="#000" font-family="Sans" fill="#fff"/></svg>