<?xml version="1.0" standalone="no"?>
<!DOCTYPE svg PUBLIC "-//W3C//DTD SVG 20010904//EN"
 "http://www.w3.org/TR/2001/REC-SVG-20010904/DTD/svg10.dtd">
<svg version="1.0" xmlns="http://www.w3.org/2000/svg"
 width="700.000000pt" height="700.000000pt" viewBox="0 0 700.000000 700.000000"
 preserveAspectRatio="xMidYMid meet">
<metadata>
Created by potrace 1.11, written by Peter Selinger 2001-2013
</metadata>
<g transform="translate(0.000000,700.000000) scale(0.100000,-0.100000)"
fill="#000000" stroke="none">
<path d="M455 6988 c-91 -17 -210 -83 -285 -158 -78 -77 -141 -195 -159 -294
-15 -84 -15 -5988 0 -6072 6 -32 29 -97 51 -143 51 -107 151 -211 249 -258
137 -68 -114 -63 3189 -63 3303 0 3052 -5 3189 63 89 43 205 159 248 248 68
137 63 -114 63 3189 0 3303 5 3052 -63 3189 -47 98 -151 198 -258 249 -46 22
-111 45 -143 51 -77 14 -6007 13 -6081 -1z m3342 -1233 c76 -33 143 -102 181
-183 22 -47 27 -71 27 -142 0 -77 -3 -92 -33 -152 -109 -221 -401 -271 -572
-97 -190 193 -109 509 153 595 65 22 170 13 244 -21z m91 -1111 l22 -15 0
-1125 0 -1124 283 0 c240 0 286 -2 305 -16 21 -15 22 -20 22 -210 0 -181 -1
-195 -20 -214 -20 -20 -33 -20 -883 -20 -764 0 -865 2 -885 16 -21 15 -22 20
-22 214 0 194 1 199 22 214 19 14 68 16 330 16 l308 0 0 910 0 910 -299 0
c-299 0 -300 0 -315 22 -13 19 -16 58 -16 230 l0 208 563 0 c493 0 565 -2 585
-16z"/>
</g>
</svg>
