<?xml version="1.0" encoding="UTF-8" standalone="no"?>
<!-- Created with Inkscape (http://www.inkscape.org/) -->

<svg
   xmlns:dc="http://purl.org/dc/elements/1.1/"
   xmlns:cc="http://creativecommons.org/ns#"
   xmlns:rdf="http://www.w3.org/1999/02/22-rdf-syntax-ns#"
   xmlns:svg="http://www.w3.org/2000/svg"
   xmlns="http://www.w3.org/2000/svg"
   xmlns:sodipodi="http://sodipodi.sourceforge.net/DTD/sodipodi-0.dtd"
   xmlns:inkscape="http://www.inkscape.org/namespaces/inkscape"
   width="220"
   height="220"
   id="svg2"
   version="1.1"
   inkscape:version="0.48.4 r9943 custom"
   sodipodi:docname="logo.svg"
   inkscape:export-filename="/Users/growdigital/Sites/indiego.org.uk/themes/indiego/src/modules/components/graphics/logo/logo-thumbnail.png"
   inkscape:export-xdpi="90"
   inkscape:export-ydpi="90">
  <defs
     id="defs4" />
  <sodipodi:namedview
     id="base"
     pagecolor="#ffffff"
     bordercolor="#666666"
     borderopacity="1.0"
     inkscape:pageopacity="0.0"
     inkscape:pageshadow="2"
     inkscape:zoom="3.4"
     inkscape:cx="110"
     inkscape:cy="110"
     inkscape:document-units="px"
     inkscape:current-layer="layer1"
     showgrid="false"
     inkscape:window-width="1440"
     inkscape:window-height="855"
     inkscape:window-x="0"
     inkscape:window-y="23"
     inkscape:window-maximized="0"
     fit-margin-top="0"
     fit-margin-left="0"
     fit-margin-right="0"
     fit-margin-bottom="0" />
  <metadata
     id="metadata7">
    <rdf:RDF>
      <cc:Work
         rdf:about="">
        <dc:format>image/svg+xml</dc:format>
        <dc:type
           rdf:resource="http://purl.org/dc/dcmitype/StillImage" />
        <dc:title></dc:title>
      </cc:Work>
    </rdf:RDF>
  </metadata>
  <g
     inkscape:label="Layer 1"
     inkscape:groupmode="layer"
     id="layer1"
     transform="translate(0,-343.07647)">
    <path
       style="fill:#000000;fill-opacity:1;stroke:none"
       d="M 18 0 C 8.028 0 1.1141088e-16 8.028 0 18 L 0 202 C 0 211.972 8.028 220 18 220 L 202 220 C 211.972 220 220 211.972 220 202 L 220 18 C 220 8.028 211.972 1.1141088e-16 202 0 L 18 0 z "
       transform="translate(0,343.07647)"
       id="rect2996" />
    <path
       style="fill:#4b0082;fill-opacity:1;stroke:none"
       d="M 214.75 5.25 L 5.25 214.75 C 8.5035 218.0035 13.014 220 18 220 L 202 220 C 211.972 220 220 211.972 220 202 L 220 18 C 220 13.014 218.0035 8.5035 214.75 5.25 z "
       transform="translate(0,343.07647)"
       id="path2994" />
    <g
       style="fill:#ffffff;fill-opacity:1;stroke:#ffffff;stroke-width:3.20000005;stroke-linejoin:round;stroke-miterlimit:4;stroke-opacity:1;stroke-dasharray:none"
       transform="matrix(1.2745926,0,0,-1.2745926,86.010548,501.7513)"
       id="g3901">
      <g
         style="fill:#ffffff;fill-opacity:1;stroke:#ffffff;stroke-width:3.20000005;stroke-linejoin:round;stroke-miterlimit:4;stroke-opacity:1;stroke-dasharray:none"
         id="g3903"
         transform="matrix(1,0,0,-1,0,93.925949)">
        <path
           sodipodi:nodetypes="ccccccccccccccccc"
           inkscape:connector-curvature="0"
           id="path3932"
           d="m 0.0438888,27.106624 c 0,0 0.0498612,6.575032 0.0498612,9.862126 -0.013109,0.843952 0.74970253,1.621721 1.59375,1.625 l 14,0 0,44.75 -14.84375,0 C 0.01017966,83.34705 -0.74666748,84.10393 -0.75,84.9375 l 0,8.15625 c 0.003333,0.83357 0.76017966,1.590417 1.59375,1.59375 l 41.625,0 c 0.83357,-0.0033 1.590417,-0.76018 1.59375,-1.59375 l 0,-8.15625 c -0.0033,-0.83357 -0.76018,-1.590417 -1.59375,-1.59375 l -13.4375,0 0,-54.65625 c -0.0033,-0.844047 -0.781048,-1.606859 -1.625,-1.59375 -9.12057,0.03836 -27.3623612,0.01287 -27.3623612,0.01287 z"
           style="font-size:medium;font-style:normal;font-variant:normal;font-weight:normal;font-stretch:normal;text-indent:0;text-align:start;text-decoration:none;line-height:normal;letter-spacing:normal;word-spacing:normal;text-transform:none;direction:ltr;block-progression:tb;writing-mode:lr-tb;text-anchor:start;baseline-shift:baseline;color:#000000;fill:#ffffff;fill-opacity:1;fill-rule:nonzero;stroke:none;stroke-width:3.20000005;marker:none;visibility:visible;display:inline;overflow:visible;enable-background:accumulate;font-family:Sans;-inkscape-font-specification:Sans" />
        <path
           sodipodi:nodetypes="sssss"
           inkscape:connector-curvature="0"
           id="path3905"
           d="m 22.5,-0.75 c -4.960786,0 -8.78125,4.1309806 -8.78125,8.90625 0,4.776057 3.857345,8.78125 8.78125,8.78125 4.923905,0 8.90625,-3.967001 8.90625,-8.78125 C 31.40625,3.3427789 27.460786,-0.75 22.5,-0.75 z"
           style="font-size:medium;font-style:normal;font-variant:normal;font-weight:normal;font-stretch:normal;text-indent:0;text-align:start;text-decoration:none;line-height:normal;letter-spacing:normal;word-spacing:normal;text-transform:none;direction:ltr;block-progression:tb;writing-mode:lr-tb;text-anchor:start;baseline-shift:baseline;color:#000000;fill:#ffffff;fill-opacity:1;fill-rule:nonzero;stroke:none;stroke-width:3.20000005;marker:none;visibility:visible;display:inline;overflow:visible;enable-background:accumulate;font-family:Sans;-inkscape-font-specification:Sans" />
      </g>
    </g>
  </g>
</svg>
